<svg xmlns="http://www.w3.org/2000/svg" xmlns:svg="http://www.w3.org/2000/svg" xmlns:xlink="http://www.w3.org/1999/xlink" id="svg17226" width="128" height="128" version="1.1" viewBox="0 0 128 128"><defs id="defs17220"><linearGradient id="_Linear1" x1="0" x2="1" y1="0" y2="0" gradientTransform="matrix(137.32,719.201,-719.201,137.32,-12.7656,-459.807)" gradientUnits="userSpaceOnUse"><stop id="stop9052" offset="0%" stop-color="#fff" stop-opacity="1"/><stop id="stop9054" offset="34%" stop-color="#fff" stop-opacity="1"/><stop id="stop9056" offset="51%" stop-color="#bebdf3" stop-opacity="1"/><stop id="stop9058" offset="75%" stop-color="#867fb7" stop-opacity="1"/><stop id="stop9060" offset="87%" stop-color="#9f99c7" stop-opacity="1"/><stop id="stop9062" offset="100%" stop-color="#524c76" stop-opacity="1"/></linearGradient><linearGradient id="_Linear2" x1="0" x2="1" y1="0" y2="0" gradientTransform="matrix(-41.4782,-185.977,185.977,-41.4782,156.163,202.263)" gradientUnits="userSpaceOnUse"><stop id="stop9065" offset="0%" stop-color="#fff" stop-opacity="1"/><stop id="stop9067" offset="34%" stop-color="#fff" stop-opacity="1"/><stop id="stop9069" offset="51%" stop-color="#bebbdb" stop-opacity="1"/><stop id="stop9071" offset="75%" stop-color="#928bbe" stop-opacity="1"/><stop id="stop9073" offset="87%" stop-color="#9f99c7" stop-opacity="1"/><stop id="stop9075" offset="100%" stop-color="#524c76" stop-opacity="1"/></linearGradient><radialGradient id="_Radial3" cx="0" cy="0" r="1" gradientTransform="matrix(36.9132,0,0,28.2927,107.505,89.2005)" gradientUnits="userSpaceOnUse"><stop id="stop9078" offset="0%" stop-color="#fff" stop-opacity="1"/><stop id="stop9080" offset="34%" stop-color="#fff" stop-opacity="1"/><stop id="stop9082" offset="51%" stop-color="#bebbdb" stop-opacity="1"/><stop id="stop9084" offset="75%" stop-color="#928bbe" stop-opacity="1"/><stop id="stop9086" offset="87%" stop-color="#9f99c7" stop-opacity="1"/><stop id="stop9088" offset="100%" stop-color="#524c76" stop-opacity="1"/></radialGradient><radialGradient id="_Radial4" cx="0" cy="0" r="1" gradientTransform="matrix(-5.06038,321.086,-273.845,-4.31164,23.522,98.2549)" gradientUnits="userSpaceOnUse"><stop id="stop9091" offset="0%" stop-color="#fff" stop-opacity="1"/><stop id="stop9093" offset="34%" stop-color="#fff" stop-opacity="1"/><stop id="stop9095" offset="51%" stop-color="#bebbdb" stop-opacity="1"/><stop id="stop9097" offset="75%" stop-color="#928bbe" stop-opacity="1"/><stop id="stop9099" offset="87%" stop-color="#9f99c7" stop-opacity="1"/><stop id="stop9101" offset="100%" stop-color="#524c76" stop-opacity="1"/></radialGradient><filter id="filter3573" color-interpolation-filters="sRGB"><feGaussianBlur id="feGaussianBlur3575" stdDeviation="1.628"/></filter><linearGradient id="linearGradient3538" x1="61.429" x2="116.429" y1="362.143" y2="408.571" gradientTransform="matrix(2.684162,0,0,2.684162,-89.865856,-904.32339)" gradientUnits="userSpaceOnUse" xlink:href="#linearGradient3312"/><linearGradient id="linearGradient3312"><stop id="stop3314" offset="0" stop-color="#c7f994" stop-opacity="1"/><stop id="stop3316" offset="1" stop-color="#87cf3e" stop-opacity="1"/></linearGradient><linearGradient id="linearGradient4136" x1="70.492" x2="113.642" y1="416.389" y2="375.88" gradientTransform="translate(0,80)" gradientUnits="userSpaceOnUse" spreadMethod="pad" xlink:href="#linearGradient3431"/><linearGradient id="linearGradient3431"><stop id="stop3433" offset="0" stop-color="#3d3d3d" stop-opacity="1"/><stop id="stop3435" offset="1" stop-color="#000" stop-opacity=".114"/></linearGradient><filter id="filter3291" color-interpolation-filters="sRGB"><feGaussianBlur id="feGaussianBlur3293" stdDeviation=".401"/></filter><filter id="filter3546" color-interpolation-filters="sRGB"><feGaussianBlur id="feGaussianBlur3548" stdDeviation=".16"/></filter></defs><metadata id="metadata17223"/><g id="layer1" transform="translate(0,-994.5197)"><g id="g4510" fill="#0d597f" fill-opacity="1" stroke-width="1.817" transform="matrix(0.68799475,0,0,-0.68799475,49.994835,1069.4162)"><path id="path4508" fill="#0d597f" fill-opacity="1" fill-rule="nonzero" stroke="none" stroke-width="1.817" d="M 0,0 V 15.687 L -11.296,4.379 C -10.079,3.532 -8.932,2.836 -7.853,2.27 -6.774,1.703 -5.764,1.265 -4.823,0.932 -3.882,0.598 -3.009,0.37 -2.206,0.222 -1.402,0.075 -0.667,0.009 0,0 m 57.751,1.304 c 0.02,-0.017 0.13,-0.11 0.333,-0.239 0.204,-0.13 0.502,-0.297 0.898,-0.462 0.395,-0.164 0.889,-0.327 1.485,-0.448 0.596,-0.122 1.294,-0.202 2.098,-0.202 0.671,0 1.411,0.059 2.222,0.2 0.812,0.142 1.693,0.367 2.645,0.699 0.953,0.333 1.976,0.773 3.07,1.344 1.094,0.572 2.259,1.276 3.495,2.136 L 65.425,12.729 37.015,41.245 24.549,28.776 7.733,46.117 -34.471,4.39 c 1.235,-0.86 2.398,-1.564 3.491,-2.136 1.093,-0.571 2.115,-1.011 3.067,-1.344 0.951,-0.332 1.832,-0.557 2.643,-0.698 0.81,-0.142 1.55,-0.201 2.22,-0.201 0.804,0 1.502,0.08 2.097,0.202 0.596,0.121 1.089,0.284 1.485,0.449 0.396,0.164 0.693,0.331 0.897,0.461 0.204,0.13 0.314,0.223 0.334,0.24 L 0.815,20.415 7.628,26.948 26.494,8.082 33.085,1.304 c 0.02,-0.017 0.13,-0.11 0.334,-0.239 0.204,-0.13 0.501,-0.297 0.897,-0.462 0.396,-0.164 0.89,-0.327 1.485,-0.448 0.596,-0.122 1.295,-0.202 2.099,-0.202 0.67,0 1.411,0.059 2.222,0.2 0.811,0.142 1.693,0.367 2.645,0.699 0.952,0.333 1.975,0.773 3.069,1.344 1.094,0.572 2.259,1.276 3.495,2.136 L 34.192,19.157 37.01,21.975 50.111,8.874 57.751,1.304 M 57.588,80.32 94.807,15.838 57.588,-48.644 h -74.463 l -37.219,64.482 37.219,64.482 z"/></g></g></svg>