<svg xmlns="http://www.w3.org/2000/svg" xmlns:svg="http://www.w3.org/2000/svg" id="svg17226" width="128" height="128" version="1.1" viewBox="0 0 128 128"><defs id="defs17220"><linearGradient id="_Linear1" x1="0" x2="1" y1="0" y2="0" gradientTransform="matrix(137.32,719.201,-719.201,137.32,-12.7656,-459.807)" gradientUnits="userSpaceOnUse"><stop id="stop9052" offset="0%" stop-color="#fff" stop-opacity="1"/><stop id="stop9054" offset="34%" stop-color="#fff" stop-opacity="1"/><stop id="stop9056" offset="51%" stop-color="#bebdf3" stop-opacity="1"/><stop id="stop9058" offset="75%" stop-color="#867fb7" stop-opacity="1"/><stop id="stop9060" offset="87%" stop-color="#9f99c7" stop-opacity="1"/><stop id="stop9062" offset="100%" stop-color="#524c76" stop-opacity="1"/></linearGradient><linearGradient id="_Linear2" x1="0" x2="1" y1="0" y2="0" gradientTransform="matrix(-41.4782,-185.977,185.977,-41.4782,156.163,202.263)" gradientUnits="userSpaceOnUse"><stop id="stop9065" offset="0%" stop-color="#fff" stop-opacity="1"/><stop id="stop9067" offset="34%" stop-color="#fff" stop-opacity="1"/><stop id="stop9069" offset="51%" stop-color="#bebbdb" stop-opacity="1"/><stop id="stop9071" offset="75%" stop-color="#928bbe" stop-opacity="1"/><stop id="stop9073" offset="87%" stop-color="#9f99c7" stop-opacity="1"/><stop id="stop9075" offset="100%" stop-color="#524c76" stop-opacity="1"/></linearGradient><radialGradient id="_Radial3" cx="0" cy="0" r="1" gradientTransform="matrix(36.9132,0,0,28.2927,107.505,89.2005)" gradientUnits="userSpaceOnUse"><stop id="stop9078" offset="0%" stop-color="#fff" stop-opacity="1"/><stop id="stop9080" offset="34%" stop-color="#fff" stop-opacity="1"/><stop id="stop9082" offset="51%" stop-color="#bebbdb" stop-opacity="1"/><stop id="stop9084" offset="75%" stop-color="#928bbe" stop-opacity="1"/><stop id="stop9086" offset="87%" stop-color="#9f99c7" stop-opacity="1"/><stop id="stop9088" offset="100%" stop-color="#524c76" stop-opacity="1"/></radialGradient><radialGradient id="_Radial4" cx="0" cy="0" r="1" gradientTransform="matrix(-5.06038,321.086,-273.845,-4.31164,23.522,98.2549)" gradientUnits="userSpaceOnUse"><stop id="stop9091" offset="0%" stop-color="#fff" stop-opacity="1"/><stop id="stop9093" offset="34%" stop-color="#fff" stop-opacity="1"/><stop id="stop9095" offset="51%" stop-color="#bebbdb" stop-opacity="1"/><stop id="stop9097" offset="75%" stop-color="#928bbe" stop-opacity="1"/><stop id="stop9099" offset="87%" stop-color="#9f99c7" stop-opacity="1"/><stop id="stop9101" offset="100%" stop-color="#524c76" stop-opacity="1"/></radialGradient></defs><metadata id="metadata17223"/><g id="layer1" transform="translate(0,-994.5197)"><g id="g901" stroke-width="1.704" transform="matrix(0.58668671,0,0,0.58668671,1.415573,1000.0245)"><path id="path889" fill="#1793d1" fill-opacity="1" fill-rule="evenodd" stroke="none" stroke-width="1.704" d="m 105.8125,16.624996 c -7.39687,18.135158 -11.858304,29.997682 -20.09375,47.59375 5.04936,5.35232 11.247211,11.585364 21.3125,18.625 C 96.210077,78.3909 88.828713,73.920348 83.3125,69.281246 72.7727,91.274159 56.259864,122.60209 22.75,182.8125 49.087628,167.60733 69.504089,158.23318 88.53125,154.65625 87.714216,151.1422 87.2497,147.34107 87.28125,143.375 l 0.03125,-0.84375 c 0.417917,-16.87382 9.195665,-29.84979 19.59375,-28.96875 10.39809,0.88104 18.48041,15.28242 18.0625,32.15625 -0.0786,3.17512 -0.43674,6.22955 -1.0625,9.0625 18.82058,3.68164 39.01873,13.03179 65,28.03125 -5.123,-9.4318 -9.69572,-17.93388 -14.0625,-26.03125 -6.87839,-5.33121 -14.05289,-12.2698 -28.6875,-19.78125 10.05899,2.61375 17.2611,5.62932 22.875,9 C 124.63297,63.338157 121.03766,52.354105 105.8125,16.624996 Z"/><g id="g895" fill="#1793d1" fill-opacity="1" stroke="none" stroke-width="1.704" font-family="DejaVu Sans Mono" font-size="8.251" font-style="normal" font-weight="normal" transform="matrix(0.8746356,0,0,0.8746356,-20.046795,-106.39346)"><path id="path891" fill="#1793d1" fill-opacity="1" stroke-width="1.704" d="m 239.84053,313.69965 v -5.20945 h -1.94598 v -0.697 h 4.68164 v 0.697 h -1.95404 v 5.20945 h -0.78162"/><path id="path893" fill="#1793d1" fill-opacity="1" stroke-width="1.704" d="m 243.39004,313.69965 v -5.90645 h 1.17646 l 1.39805,4.18205 c 0.12892,0.38947 0.22293,0.6809 0.28202,0.87429 0.0671,-0.21488 0.1719,-0.53048 0.31426,-0.94681 l 1.41417,-4.10953 h 1.05155 v 5.90645 h -0.75341 v -4.94353 l -1.71634,4.94353 h -0.70506 l -1.70828,-5.02814 v 5.02814 h -0.75342"/></g></g></g></svg>