<svg xmlns="http://www.w3.org/2000/svg" xmlns:svg="http://www.w3.org/2000/svg" id="svg17226" width="128" height="128" version="1.1" viewBox="0 0 128 128"><defs id="defs17220"><linearGradient id="_Linear1" x1="0" x2="1" y1="0" y2="0" gradientTransform="matrix(137.32,719.201,-719.201,137.32,-12.7656,-459.807)" gradientUnits="userSpaceOnUse"><stop id="stop9052" offset="0%" stop-color="#fff" stop-opacity="1"/><stop id="stop9054" offset="34%" stop-color="#fff" stop-opacity="1"/><stop id="stop9056" offset="51%" stop-color="#bebdf3" stop-opacity="1"/><stop id="stop9058" offset="75%" stop-color="#867fb7" stop-opacity="1"/><stop id="stop9060" offset="87%" stop-color="#9f99c7" stop-opacity="1"/><stop id="stop9062" offset="100%" stop-color="#524c76" stop-opacity="1"/></linearGradient><linearGradient id="_Linear2" x1="0" x2="1" y1="0" y2="0" gradientTransform="matrix(-41.4782,-185.977,185.977,-41.4782,156.163,202.263)" gradientUnits="userSpaceOnUse"><stop id="stop9065" offset="0%" stop-color="#fff" stop-opacity="1"/><stop id="stop9067" offset="34%" stop-color="#fff" stop-opacity="1"/><stop id="stop9069" offset="51%" stop-color="#bebbdb" stop-opacity="1"/><stop id="stop9071" offset="75%" stop-color="#928bbe" stop-opacity="1"/><stop id="stop9073" offset="87%" stop-color="#9f99c7" stop-opacity="1"/><stop id="stop9075" offset="100%" stop-color="#524c76" stop-opacity="1"/></linearGradient><radialGradient id="_Radial3" cx="0" cy="0" r="1" gradientTransform="matrix(36.9132,0,0,28.2927,107.505,89.2005)" gradientUnits="userSpaceOnUse"><stop id="stop9078" offset="0%" stop-color="#fff" stop-opacity="1"/><stop id="stop9080" offset="34%" stop-color="#fff" stop-opacity="1"/><stop id="stop9082" offset="51%" stop-color="#bebbdb" stop-opacity="1"/><stop id="stop9084" offset="75%" stop-color="#928bbe" stop-opacity="1"/><stop id="stop9086" offset="87%" stop-color="#9f99c7" stop-opacity="1"/><stop id="stop9088" offset="100%" stop-color="#524c76" stop-opacity="1"/></radialGradient><radialGradient id="_Radial4" cx="0" cy="0" r="1" gradientTransform="matrix(-5.06038,321.086,-273.845,-4.31164,23.522,98.2549)" gradientUnits="userSpaceOnUse"><stop id="stop9091" offset="0%" stop-color="#fff" stop-opacity="1"/><stop id="stop9093" offset="34%" stop-color="#fff" stop-opacity="1"/><stop id="stop9095" offset="51%" stop-color="#bebbdb" stop-opacity="1"/><stop id="stop9097" offset="75%" stop-color="#928bbe" stop-opacity="1"/><stop id="stop9099" offset="87%" stop-color="#9f99c7" stop-opacity="1"/><stop id="stop9101" offset="100%" stop-color="#524c76" stop-opacity="1"/></radialGradient><clipPath id="clipPath4429"><g id="g4431" transform="matrix(0.9947658,0,0,1,1.7860989,0)"><path id="path4433" fill="#efa724" fill-opacity="1" fill-rule="evenodd" stroke="none" stroke-width="30" d="m 322.54143,2800.9375 -4.43505,5.7298 -4.43495,-5.7298 v -43.1429 h -18.93972 l 23.37467,-25.5367 23.13125,25.5367 h -18.6962 z" display="inline" overflow="visible" visibility="visible" style="marker:none"/></g></clipPath><clipPath id="clipPath955"><g id="g953" transform="matrix(0.9947658,0,0,1,1.7860989,0)"><path id="path951" fill="#efa724" fill-opacity="1" fill-rule="evenodd" stroke="none" stroke-width="30" d="m 322.54143,2800.9375 -4.43505,5.7298 -4.43495,-5.7298 v -43.1429 h -18.93972 l 23.37467,-25.5367 23.13125,25.5367 h -18.6962 z" display="inline" overflow="visible" visibility="visible" style="marker:none"/></g></clipPath><clipPath id="clipPath961"><g id="g959" transform="matrix(0.9947658,0,0,1,1.7860989,0)"><path id="path957" fill="#efa724" fill-opacity="1" fill-rule="evenodd" stroke="none" stroke-width="30" d="m 322.54143,2800.9375 -4.43505,5.7298 -4.43495,-5.7298 v -43.1429 h -18.93972 l 23.37467,-25.5367 23.13125,25.5367 h -18.6962 z" display="inline" overflow="visible" visibility="visible" style="marker:none"/></g></clipPath><clipPath id="clipPath967"><g id="g965" transform="matrix(0.9947658,0,0,1,1.7860989,0)"><path id="path963" fill="#efa724" fill-opacity="1" fill-rule="evenodd" stroke="none" stroke-width="30" d="m 322.54143,2800.9375 -4.43505,5.7298 -4.43495,-5.7298 v -43.1429 h -18.93972 l 23.37467,-25.5367 23.13125,25.5367 h -18.6962 z" display="inline" overflow="visible" visibility="visible" style="marker:none"/></g></clipPath></defs><metadata id="metadata17223"/><g id="layer1" transform="translate(0,-994.5197)"><g id="g938" stroke-width="1.52" transform="matrix(0.69955361,0,0,0.699556,80.015669,352.62013)"><g id="g890" stroke-width="1.52" transform="rotate(-90,-298.5197,1636.0002)"><g id="g888" stroke-width="1.52" transform="translate(16.279512,-899.16723)"><g id="g884" stroke-width="1.52" transform="matrix(1.0666663,0,0,1,-26.935596,-4.1328125e-5)"><path id="path882" fill="#932279" fill-opacity="1" fill-rule="evenodd" stroke="none" stroke-width="45.615" d="m 323.36653,2798.1614 -5.40616,5.8005 -5.40616,-5.8005 v -40.8261 h -18.01333 l 23.41949,-24.8979 23.02487,24.8979 h -17.6187 z" display="inline" overflow="visible" visibility="visible" style="marker:none"/></g></g></g><g id="g900" stroke-width="1.52" transform="translate(-351.30671,-902.55818)"><g id="g898" stroke-width="1.52" transform="translate(16.279512,-899.16723)"><g id="g894" stroke-width="1.52" transform="matrix(1.0666663,0,0,1,-26.935596,-4.1328125e-5)"><path id="path892" fill="#efa724" fill-opacity="1" fill-rule="evenodd" stroke="none" stroke-width="45.615" d="m 323.36653,2798.1614 -5.40616,5.8005 -5.40616,-5.8005 v -40.8261 h -18.01333 l 23.41949,-24.8979 23.02487,24.8979 h -17.6187 z" display="inline" overflow="visible" visibility="visible" style="marker:none"/></g></g></g><g id="g908" stroke-width="1.52" transform="rotate(90,1045.4823,1742.4169)"><g id="g904" stroke-width="1.52" transform="matrix(1.0666663,0,0,1,-26.935596,-4.1328125e-5)"><path id="path902" fill="#262577" fill-opacity="1" fill-rule="evenodd" stroke="none" stroke-width="45.615" d="m 323.36653,2798.1614 -5.40616,5.8005 -5.40616,-5.8005 v -40.8261 h -18.01333 l 23.41949,-24.8979 23.02487,24.8979 h -17.6187 z" display="inline" overflow="visible" visibility="visible" style="marker:none"/></g></g><g id="g918" stroke-width="1.52" transform="rotate(180,152.75931,1460.3469)"><g id="g916" stroke-width="1.52" transform="translate(16.279512,-899.16723)"><g id="g912" stroke-width="1.52" transform="matrix(1.0666663,0,0,1,-26.935596,-4.1328125e-5)"><path id="path910" fill="#9ccd2a" fill-opacity="1" fill-rule="evenodd" stroke="none" stroke-width="45.615" d="m 323.36653,2798.1614 -5.40616,5.8005 -5.40616,-5.8005 v -40.8261 h -18.01333 l 23.41949,-24.8979 23.02487,24.8979 h -17.6187 z" display="inline" overflow="visible" visibility="visible" style="marker:none"/></g></g></g><g id="g928" stroke-width="1.52" transform="translate(-749.79982,-1331.6428)"><path id="path920" fill="#9ccd2a" fill-opacity="1" stroke="#fff" stroke-dashoffset="0" stroke-linecap="butt" stroke-linejoin="miter" stroke-miterlimit="4" stroke-opacity="1" stroke-width="5.388" d="m 671.98437,2285.7893 h 49.60645 v 49.6065 h -49.60645 z"/><path id="path922" fill="#932279" fill-opacity="1" stroke="#fff" stroke-dashoffset="0" stroke-linecap="butt" stroke-linejoin="miter" stroke-miterlimit="4" stroke-opacity="1" stroke-width="5.388" d="m 732.22076,2285.7893 h 49.60645 v 49.6065 h -49.60645 z"/><path id="path924" fill="#efa724" fill-opacity="1" stroke="#fff" stroke-dashoffset="0" stroke-linecap="butt" stroke-linejoin="miter" stroke-miterlimit="4" stroke-opacity="1" stroke-width="5.388" d="m 732.22076,2346.0256 h 49.60645 v 49.6065 h -49.60645 z"/><path id="path926" fill="#262577" fill-opacity="1" stroke="#fff" stroke-dashoffset="0" stroke-linecap="butt" stroke-linejoin="miter" stroke-miterlimit="4" stroke-opacity="1" stroke-width="5.388" d="m 671.98437,2346.0256 h 49.60645 v 49.6065 h -49.60645 z"/></g><path id="path930" fill="none" stroke="#fff" stroke-dashoffset="0" stroke-linecap="butt" stroke-linejoin="miter" stroke-miterlimit="4" stroke-opacity="1" stroke-width="5.388" d="m -784.62878,642.40875 h 49.60644 v 49.60645 h -49.60644 z" transform="rotate(-45)"/><path id="path932" fill="none" stroke="#fff" stroke-dasharray="none" stroke-dashoffset="0" stroke-linecap="butt" stroke-linejoin="miter" stroke-miterlimit="4" stroke-opacity="1" stroke-width="5.387" d="m -724.39233,642.40875 h 49.60645 v 49.60645 h -49.60645 z" transform="rotate(-45)"/><path id="path934" fill="none" stroke="#fff" stroke-dashoffset="0" stroke-linecap="butt" stroke-linejoin="miter" stroke-miterlimit="4" stroke-opacity="1" stroke-width="5.388" d="m -15.377623,1009.0679 35.077058,-35.0771 35.077058,35.0771 -35.077058,35.077 z"/><path id="path936" fill="none" stroke="#fff" stroke-dashoffset="0" stroke-linecap="butt" stroke-linejoin="miter" stroke-miterlimit="4" stroke-opacity="1" stroke-width="5.388" d="m -784.62878,702.64508 h 49.60644 v 49.60645 h -49.60644 z" transform="rotate(-45)"/></g></g></svg>