<svg xmlns="http://www.w3.org/2000/svg" xmlns:svg="http://www.w3.org/2000/svg" xmlns:xlink="http://www.w3.org/1999/xlink" id="svg137" width="128" height="128" version="1.1" viewBox="1 1 128 128"><metadata id="metadata141"/><defs id="defs3"><circle id="a" cx="96" cy="96" r="88"/><clipPath id="b-8"><use id="use5-1" width="100%" height="100%" x="0" y="0" overflow="visible" xlink:href="#a"/></clipPath><linearGradient id="linearGradient1308-0" x1="29.337" x2="81.837" y1="75.021" y2="44.354" gradientUnits="userSpaceOnUse" xlink:href="#c"/><linearGradient id="linearGradient2045" x1="29.337" x2="81.837" y1="75.021" y2="44.354" gradientUnits="userSpaceOnUse"><stop id="stop10-3" offset="0" stop-color="#A52714" stop-opacity=".6"/><stop id="stop12-0" offset=".66" stop-color="#A52714" stop-opacity="0"/></linearGradient><clipPath id="clipPath1749"><use id="use1747" width="100%" height="100%" x="0" y="0" overflow="visible" xlink:href="#a"/></clipPath><clipPath id="clipPath1753"><use id="use1751" width="100%" height="100%" x="0" y="0" overflow="visible" xlink:href="#a"/></clipPath><linearGradient id="linearGradient1310-4" x1="110.87" x2="52.538" y1="164.5" y2="130.33" gradientUnits="userSpaceOnUse" xlink:href="#d"/><linearGradient id="linearGradient2054" x1="110.87" x2="52.538" y1="164.5" y2="130.33" gradientUnits="userSpaceOnUse"><stop id="stop23-4" offset="0" stop-color="#055524" stop-opacity=".4"/><stop id="stop25-4" offset=".33" stop-color="#055524" stop-opacity="0"/></linearGradient><clipPath id="clipPath1761"><use id="use1759" width="100%" height="100%" x="0" y="0" overflow="visible" xlink:href="#a"/></clipPath><clipPath id="clipPath1765"><use id="use1763" width="100%" height="100%" x="0" y="0" overflow="visible" xlink:href="#a"/></clipPath><clipPath id="f-4"><path id="use37-7" d="m 8,184 h 83.77 l 38.88,-38.88 V 116 H 61.36 L 8,24.48 Z"/></clipPath><linearGradient id="linearGradient1312-6" x1="121.86" x2="136.55" y1="49.804" y2="114.13" gradientUnits="userSpaceOnUse" xlink:href="#g"/><linearGradient id="linearGradient2065" x1="121.86" x2="136.55" y1="49.804" y2="114.13" gradientUnits="userSpaceOnUse"><stop id="stop42-3" offset="0" stop-color="#EA6100" stop-opacity=".3"/><stop id="stop44-1" offset=".66" stop-color="#EA6100" stop-opacity="0"/></linearGradient><clipPath id="clipPath1775"><use id="use1773" width="100%" height="100%" x="0" y="0" overflow="visible" xlink:href="#a"/></clipPath><clipPath id="clipPath1786"><use id="use1784" width="100%" height="100%" x="0" y="0" overflow="visible" xlink:href="#a"/></clipPath><clipPath id="j-5"><path id="use62-9" d="m 96,56 34.65,60 -38.88,68 H 184 V 56 Z"/></clipPath><radialGradient id="l-2" cx="668.18" cy="55.948" r="84.078" gradientTransform="translate(-576)" gradientUnits="userSpaceOnUse"><stop id="stop73-1" offset="0" stop-color="#3E2723" stop-opacity=".2"/><stop id="stop75-7" offset="1" stop-color="#3E2723" stop-opacity="0"/></radialGradient><clipPath id="clipPath1802"><use id="use1800" width="100%" height="100%" x="0" y="0" overflow="visible" xlink:href="#a"/></clipPath><clipPath id="clipPath1806"><use id="use1804" width="100%" height="100%" x="0" y="0" overflow="visible" xlink:href="#a"/></clipPath><clipPath id="n-8"><path id="use83-5" d="M 21.97,8 V 48.34 L 61.36,116 96,56 h 88 V 8 Z"/></clipPath><radialGradient id="p-4" cx="597.88" cy="48.52" r="78.044" gradientTransform="translate(-576)" gradientUnits="userSpaceOnUse"><stop id="stop94-1" offset="0" stop-color="#3E2723" stop-opacity=".2"/><stop id="stop96-8" offset="1" stop-color="#3E2723" stop-opacity="0"/></radialGradient><clipPath id="clipPath1822"><use id="use1820" width="100%" height="100%" x="0" y="0" overflow="visible" xlink:href="#a"/></clipPath><radialGradient id="q-5" cx="671.84" cy="96.138" r="87.87" gradientTransform="translate(-576)" gradientUnits="userSpaceOnUse"><stop id="stop101-9" offset="0" stop-color="#263238" stop-opacity=".2"/><stop id="stop103-7" offset="1" stop-color="#263238" stop-opacity="0"/></radialGradient><clipPath id="clipPath1829"><use id="use1827" width="100%" height="100%" x="0" y="0" overflow="visible" xlink:href="#a"/></clipPath><clipPath id="clipPath1833"><use id="use1831" width="100%" height="100%" x="0" y="0" overflow="visible" xlink:href="#a"/></clipPath><clipPath id="clipPath1837"><use id="use1835" width="100%" height="100%" x="0" y="0" overflow="visible" xlink:href="#a"/></clipPath><clipPath id="clipPath1841"><use id="use1839" width="100%" height="100%" x="0" y="0" overflow="visible" xlink:href="#a"/></clipPath><radialGradient id="r-5" cx="34.286" cy="32.014" r="176.75" gradientTransform="matrix(0.64772725,0,0,0.64772725,55.479197,-12.554694)" gradientUnits="userSpaceOnUse"><stop id="stop130-3" offset="0" stop-color="#fff" stop-opacity=".1"/><stop id="stop132-8" offset="1" stop-color="#fff" stop-opacity="0"/></radialGradient><path id="path1641" d="m 8,184 h 83.77 l 38.88,-38.88 V 116 H 61.36 L 8,24.48 Z"/><path id="path1669" d="m 96,56 34.65,60 -38.88,68 H 184 V 56 Z"/><path id="path1687" d="M 21.97,8 V 48.34 L 61.36,116 96,56 h 88 V 8 Z"/><linearGradient id="linearGradient2167" x1="29.337" x2="81.837" y1="75.021" y2="44.354" gradientUnits="userSpaceOnUse" xlink:href="#c"/><linearGradient id="linearGradient2169" x1="110.87" x2="52.538" y1="164.5" y2="130.33" gradientUnits="userSpaceOnUse" xlink:href="#d"/><linearGradient id="linearGradient2171" x1="121.86" x2="136.55" y1="49.804" y2="114.13" gradientUnits="userSpaceOnUse" xlink:href="#g"/></defs><clipPath id="b"><use id="use5" width="100%" height="100%" x="0" y="0" overflow="visible" xlink:href="#a"/></clipPath><radialGradient id="l" cx="668.18" cy="55.948" r="84.078" gradientTransform="translate(-576)" gradientUnits="userSpaceOnUse"><stop id="stop73" offset="0" stop-color="#3E2723" stop-opacity=".2"/><stop id="stop75" offset="1" stop-color="#3E2723" stop-opacity="0"/></radialGradient><radialGradient id="p" cx="597.88" cy="48.52" r="78.044" gradientTransform="translate(-576)" gradientUnits="userSpaceOnUse"><stop id="stop94" offset="0" stop-color="#3E2723" stop-opacity=".2"/><stop id="stop96" offset="1" stop-color="#3E2723" stop-opacity="0"/></radialGradient><radialGradient id="q" cx="671.84" cy="96.138" r="87.87" gradientTransform="translate(-576)" gradientUnits="userSpaceOnUse"><stop id="stop101" offset="0" stop-color="#263238" stop-opacity=".2"/><stop id="stop103" offset="1" stop-color="#263238" stop-opacity="0"/></radialGradient><radialGradient id="r" cx="34.286" cy="32.014" r="176.75" gradientTransform="translate(-7,-7)" gradientUnits="userSpaceOnUse"><stop id="stop130" offset="0" stop-color="#fff" stop-opacity=".1"/><stop id="stop132" offset="1" stop-color="#fff" stop-opacity="0"/></radialGradient><g id="g3131" stroke-width="1.213" transform="matrix(0.82456143,0,0,0.82456143,-32.018733,24.079389)"><g id="g1623" stroke-width="1.872" clip-path="url(#b-8)" transform="matrix(0.64772725,0,0,0.64772725,55.479197,-12.554694)"><path id="path1613" fill="#db4437" stroke-width="1.872" d="M 21.97,8 V 116 H 61.36 L 96,56 h 88 V 8 Z"/><linearGradient id="linearGradient1619" x1="29.337" x2="81.837" y1="75.021" y2="44.354" gradientUnits="userSpaceOnUse"><stop id="stop1615" offset="0" stop-color="#A52714" stop-opacity=".6"/><stop id="stop1617" offset=".66" stop-color="#A52714" stop-opacity="0"/></linearGradient><path id="path1621" fill="url(#linearGradient2167)" stroke-width="1.872" d="M 21.97,8 V 116 H 61.36 L 96,56 h 88 V 8 Z"/></g><path id="path1625" fill="#3e2723" fill-opacity=".15" stroke-width="1.872" d="m 62.31,115.65 -39.83,-68.31 -0.58,1 39.54,67.8 z" clip-path="url(#b-8)" transform="matrix(0.64772725,0,0,0.64772725,55.479197,-12.554694)"/><g id="g1637" stroke-width="1.872" clip-path="url(#b-8)" transform="matrix(0.64772725,0,0,0.64772725,55.479197,-12.554694)"><path id="path1627" fill="#0f9d58" stroke-width="1.872" d="m 8,184 h 83.77 l 38.88,-38.88 V 116 H 61.36 L 8,24.48 Z"/><linearGradient id="linearGradient1633" x1="110.87" x2="52.538" y1="164.5" y2="130.33" gradientUnits="userSpaceOnUse"><stop id="stop1629" offset="0" stop-color="#055524" stop-opacity=".4"/><stop id="stop1631" offset=".33" stop-color="#055524" stop-opacity="0"/></linearGradient><path id="path1635" fill="url(#linearGradient2169)" stroke-width="1.872" d="m 8,184 h 83.77 l 38.88,-38.88 V 116 H 61.36 L 8,24.48 Z"/></g><path id="path1639" fill="#263238" fill-opacity=".15" stroke-width="1.872" d="M 129.84,117.33 129.01,116.85 90.62,184 h 1.15 l 38.1,-66.64 z" clip-path="url(#b-8)" transform="matrix(0.64772725,0,0,0.64772725,55.479197,-12.554694)"/><g id="g1661" stroke-width="1.872" clip-path="url(#b-8)" transform="matrix(0.64772725,0,0,0.64772725,55.479197,-12.554694)"><defs id="defs1643"><path id="path2118" d="m 8,184 h 83.77 l 38.88,-38.88 V 116 H 61.36 L 8,24.48 Z"/></defs><clipPath id="clipPath1647"><path id="use1645" d="m 8,184 h 83.77 l 38.88,-38.88 V 116 H 61.36 L 8,24.48 Z"/></clipPath><g id="g1659" stroke-width="1.872" clip-path="url(#f-4)"><path id="path1649" fill="#ffcd40" stroke-width="1.872" d="m 96,56 34.65,60 -38.88,68 H 184 V 56 Z"/><linearGradient id="linearGradient1655" x1="121.86" x2="136.55" y1="49.804" y2="114.13" gradientUnits="userSpaceOnUse"><stop id="stop1651" offset="0" stop-color="#EA6100" stop-opacity=".3"/><stop id="stop1653" offset=".66" stop-color="#EA6100" stop-opacity="0"/></linearGradient><path id="path1657" fill="url(#linearGradient2171)" stroke-width="1.872" d="m 96,56 34.65,60 -38.88,68 H 184 V 56 Z"/></g></g><g id="g1667" stroke-width="1.872" clip-path="url(#b-8)" transform="matrix(0.64772725,0,0,0.64772725,55.479197,-12.554694)"><path id="path1663" fill="#ffcd40" stroke-width="1.872" d="m 96,56 34.65,60 -38.88,68 H 184 V 56 Z"/><path id="path1665" fill="url(#linearGradient1312-6)" stroke-width="1.872" d="m 96,56 34.65,60 -38.88,68 H 184 V 56 Z"/></g><g id="g1683" stroke-width="1.872" clip-path="url(#b-8)" transform="matrix(0.64772725,0,0,0.64772725,55.479197,-12.554694)"><defs id="defs1671"><path id="path2133" d="m 96,56 34.65,60 -38.88,68 H 184 V 56 Z"/></defs><clipPath id="clipPath1675"><path id="use1673" d="m 96,56 34.65,60 -38.88,68 H 184 V 56 Z"/></clipPath><g id="g1681" stroke-width="1.872" clip-path="url(#j-5)"><path id="path1677" fill="#db4437" stroke-width="1.872" d="M 21.97,8 V 116 H 61.36 L 96,56 h 88 V 8 Z"/><path id="path1679" fill="url(#linearGradient1308-0)" stroke-width="1.872" d="M 21.97,8 V 116 H 61.36 L 96,56 h 88 V 8 Z"/></g></g><path id="path1685" fill="url(#l-2)" stroke-width="1.872" d="M 96,56 V 76.95 L 174.4,56 Z" clip-path="url(#b-8)" transform="matrix(0.64772725,0,0,0.64772725,55.479197,-12.554694)"/><g id="g1701" stroke-width="1.872" clip-path="url(#b-8)" transform="matrix(0.64772725,0,0,0.64772725,55.479197,-12.554694)"><defs id="defs1689"><path id="path2143" d="M 21.97,8 V 48.34 L 61.36,116 96,56 h 88 V 8 Z"/></defs><clipPath id="clipPath1693"><path id="use1691" d="M 21.97,8 V 48.34 L 61.36,116 96,56 h 88 V 8 Z"/></clipPath><g id="g1699" stroke-width="1.872" clip-path="url(#n-8)"><path id="path1695" fill="#0f9d58" stroke-width="1.872" d="m 8,184 h 83.77 l 38.88,-38.88 V 116 H 61.36 L 8,24.48 Z"/><path id="path1697" fill="url(#linearGradient1310-4)" stroke-width="1.872" d="m 8,184 h 83.77 l 38.88,-38.88 V 116 H 61.36 L 8,24.48 Z"/></g></g><path id="path1703" fill="url(#p-4)" stroke-width="1.872" d="M 21.97,48.45 79.22,105.69 61.36,116 Z" clip-path="url(#b-8)" transform="matrix(0.64772725,0,0,0.64772725,55.479197,-12.554694)"/><path id="path1705" fill="url(#q-5)" stroke-width="1.872" d="m 91.83,183.89 20.96,-78.2 17.86,10.31 z" clip-path="url(#b-8)" transform="matrix(0.64772725,0,0,0.64772725,55.479197,-12.554694)"/><g id="g1711" stroke-width="1.872" clip-path="url(#b-8)" transform="matrix(0.64772725,0,0,0.64772725,55.479197,-12.554694)"><circle id="circle1707" cx="96" cy="96" r="40" fill="#f1f1f1" stroke-width="1.872"/><circle id="circle1709" cx="96" cy="96" r="32" fill="#4285f4" stroke-width="1.872"/></g><g id="g1721" stroke-width="1.872" clip-path="url(#b-8)" transform="matrix(0.64772725,0,0,0.64772725,55.479197,-12.554694)"><path id="path1713" fill="#3e2723" fill-opacity=".2" stroke-width="1.872" d="M 96,55 C 73.91,55 56,72.91 56,95 v 1 C 56,73.91 73.91,56 96,56 h 88 v -1 z"/><path id="path1715" fill="#fff" fill-opacity=".1" stroke-width="1.872" d="m 130.6,116 c -6.92,11.94 -19.81,20 -34.6,20 -14.8,0 -27.69,-8.06 -34.61,-20 H 61.35 L 8,24.48 v 1 L 61.36,117 h 0.04 c 6.92,11.94 19.81,20 34.61,20 14.79,0 27.68,-8.05 34.6,-20 h 0.05 v -1 z"/><path id="path1717" fill="#3e2723" stroke-width="1.872" d="m 97,56 c -0.17,0 -0.33,0.02 -0.5,0.03 21.86,0.27 39.5,18.05 39.5,39.97 0,21.92 -17.64,39.7 -39.5,39.97 0.17,0 0.33,0.03 0.5,0.03 22.09,0 40,-17.91 40,-40 0,-22.09 -17.91,-40 -40,-40 z" opacity=".1"/><path id="path1719" fill="#fff" fill-opacity=".2" stroke-width="1.872" d="m 131,117.33 c 3.4,-5.88 5.37,-12.68 5.37,-19.96 0,-4.22 -0.66,-8.28 -1.87,-12.09 0.95,3.42 1.5,7.01 1.5,10.73 0,7.28 -1.97,14.08 -5.37,19.96 l 0.02,0.04 -38.88,68 h 1.16 l 38.09,-66.64 z"/></g><g id="g1727" stroke-width="1.872" clip-path="url(#b-8)" transform="matrix(0.64772725,0,0,0.64772725,55.479197,-12.554694)"><path id="path1723" fill="#fff" fill-opacity=".2" stroke-width="1.872" d="m 96,9 c 48.43,0 87.72,39.13 87.99,87.5 0,-0.17 0.01,-0.33 0.01,-0.5 C 184,47.4 144.6,8 96,8 47.4,8 8,47.4 8,96 8,96.17 8.01,96.33 8.01,96.5 8.28,48.13 47.57,9 96,9 Z"/><path id="path1725" fill="#3e2723" fill-opacity=".15" stroke-width="1.872" d="m 96,183 c 48.43,0 87.72,-39.13 87.99,-87.5 0,0.17 0.01,0.33 0.01,0.5 0,48.6 -39.4,88 -88,88 C 47.4,184 8,144.6 8,96 8,95.83 8.01,95.67 8.01,95.5 8.28,143.87 47.57,183 96,183 Z"/></g><circle id="circle1729" cx="117.661" cy="49.627" r="57" fill="url(#r-5)" stroke-width="1.213"/></g></svg>