<svg xmlns="http://www.w3.org/2000/svg" xmlns:svg="http://www.w3.org/2000/svg" id="svg17226" width="128" height="128" version="1.1" viewBox="0 0 128 128"><defs id="defs17220"><linearGradient id="_Linear1" x1="0" x2="1" y1="0" y2="0" gradientTransform="matrix(137.32,719.201,-719.201,137.32,-12.7656,-459.807)" gradientUnits="userSpaceOnUse"><stop id="stop9052" offset="0%" stop-color="#fff" stop-opacity="1"/><stop id="stop9054" offset="34%" stop-color="#fff" stop-opacity="1"/><stop id="stop9056" offset="51%" stop-color="#bebdf3" stop-opacity="1"/><stop id="stop9058" offset="75%" stop-color="#867fb7" stop-opacity="1"/><stop id="stop9060" offset="87%" stop-color="#9f99c7" stop-opacity="1"/><stop id="stop9062" offset="100%" stop-color="#524c76" stop-opacity="1"/></linearGradient><linearGradient id="_Linear2" x1="0" x2="1" y1="0" y2="0" gradientTransform="matrix(-41.4782,-185.977,185.977,-41.4782,156.163,202.263)" gradientUnits="userSpaceOnUse"><stop id="stop9065" offset="0%" stop-color="#fff" stop-opacity="1"/><stop id="stop9067" offset="34%" stop-color="#fff" stop-opacity="1"/><stop id="stop9069" offset="51%" stop-color="#bebbdb" stop-opacity="1"/><stop id="stop9071" offset="75%" stop-color="#928bbe" stop-opacity="1"/><stop id="stop9073" offset="87%" stop-color="#9f99c7" stop-opacity="1"/><stop id="stop9075" offset="100%" stop-color="#524c76" stop-opacity="1"/></linearGradient><radialGradient id="_Radial3" cx="0" cy="0" r="1" gradientTransform="matrix(36.9132,0,0,28.2927,107.505,89.2005)" gradientUnits="userSpaceOnUse"><stop id="stop9078" offset="0%" stop-color="#fff" stop-opacity="1"/><stop id="stop9080" offset="34%" stop-color="#fff" stop-opacity="1"/><stop id="stop9082" offset="51%" stop-color="#bebbdb" stop-opacity="1"/><stop id="stop9084" offset="75%" stop-color="#928bbe" stop-opacity="1"/><stop id="stop9086" offset="87%" stop-color="#9f99c7" stop-opacity="1"/><stop id="stop9088" offset="100%" stop-color="#524c76" stop-opacity="1"/></radialGradient><radialGradient id="_Radial4" cx="0" cy="0" r="1" gradientTransform="matrix(-5.06038,321.086,-273.845,-4.31164,23.522,98.2549)" gradientUnits="userSpaceOnUse"><stop id="stop9091" offset="0%" stop-color="#fff" stop-opacity="1"/><stop id="stop9093" offset="34%" stop-color="#fff" stop-opacity="1"/><stop id="stop9095" offset="51%" stop-color="#bebbdb" stop-opacity="1"/><stop id="stop9097" offset="75%" stop-color="#928bbe" stop-opacity="1"/><stop id="stop9099" offset="87%" stop-color="#9f99c7" stop-opacity="1"/><stop id="stop9101" offset="100%" stop-color="#524c76" stop-opacity="1"/></radialGradient></defs><metadata id="metadata17223"/><g id="layer1" transform="translate(0,-994.5197)"><g id="g5680" fill-rule="evenodd" stroke-linejoin="round" stroke-miterlimit="1.414" stroke-width="3.409" clip-rule="evenodd" transform="matrix(0.43996864,0,0,0.43996864,7.8291892,994.40006)"><path id="path2973" fill="url(#_Linear1)" stroke-width="3.409" d="m 20.077,215.07 c 0.024,-9.23 7.87,-22.116 19.019,-33.822 7.45,-7.824 15.016,-14.691 31.511,-28.755 -11.41,-6.26 -29.154,-13.813 -38.058,-23.705 -3.294,-3.661 -9.266,-11.953 -8.107,-23.032 2.36,-22.58 30.231,-56.848 69.846,-64.092 13.181,-2.411 28.315,-0.671 40.771,4.929 39.075,17.567 86.863,61.211 92.743,82.522 2.069,7.5 1.671,19.457 -1.896,26.12 -4.422,8.259 -19.73,25.033 -40.673,42.342 -32.862,27.159 -78.911,56.321 -113.295,61.229 -11.111,1.585 -22.462,-0.069 -30.427,-4.563 C 29.047,247.21 24.91,237.821 23.456,235.007 19.589,227.523 20.069,218.043 20.077,215.07 Z m 92.485,-103.696 c 0.424,-5.233 20.945,-0.023 19.648,4.121 -1.368,4.372 -20.135,1.883 -19.648,-4.121 z"/><g id="mid" stroke-width="3.409"><path id="path2975" fill="url(#_Linear2)" stroke-width="3.409" d="m 81.713,143.846 c -10.799,9.118 -17.979,15.265 -26.98,23.492 -21.677,19.812 -36.405,34.893 -28.812,55.508 8.76,23.78 27.961,22.574 50.478,18.154 58.04,-11.447 153.446,-84.794 148.583,-111.885 -3.935,-21.922 -57.237,-65.504 -88.796,-81.013 -9.86,-4.845 -21.222,-7.351 -32.619,-6.814 -43.396,2.048 -77.285,41.557 -75.554,62.964 1.684,20.827 54.321,38.973 53.7,39.594 z M 75.199,71.142 c -13.058,14.528 -4.709,42.636 16.945,57.957 25.339,17.927 66.372,21.173 74.538,7.347 15.231,-25.787 -1.399,-53.055 -26.223,-65.218 -24.531,-12.02 -57.121,-9.142 -65.26,-0.086 z"/><path id="path4976" fill="url(#_Radial3)" stroke-width="3.409" d="m 119.731,128.489 c 18.331,2.548 34.133,-4.793 36.604,-22.895 1.882,-13.789 -19.222,-28.855 -31.91,-32.33 -10.595,-2.902 -33.598,0.83 -35.149,20.869 -1.612,20.832 19.765,32.871 30.455,34.356 z m -8.978,-34.647 c -12.047,18.664 17.493,24.402 22.015,20.998 19.498,-14.674 -16.707,-29.221 -22.015,-20.998 z"/></g><path id="path2977" fill="url(#_Radial4)" stroke-width="3.409" d="m 100.069,46.247 c -21.311,2.246 -25.392,4.988 -44.698,19.595 -6.47,4.895 -18.379,16.807 -21.43,30.938 -1.163,5.382 0.211,10.028 4.087,13.286 12.411,10.435 33.184,18.9 50.226,27.083 4.991,2.397 1.686,6.743 -6.363,13.712 -20.312,17.584 -47.773,38.989 -49.69,55.299 -0.904,7.686 1.727,18.13 11.056,23.475 10.898,6.243 33.52,2.168 48.626,-3.457 22.074,-8.22 51.07,-26.361 74.09,-44.193 23.938,-18.544 46.196,-42.096 47.297,-45.938 1.352,-4.717 1.217,-9.074 -1.392,-14.083 -4.097,-7.866 -9.575,-13.712 -15.457,-20.254 C 180.639,85.072 163.942,70.453 143.964,59.25 129.537,51.159 116.844,44.479 100.069,46.247 Z m 31.304,37.3 c 15.396,7.444 31.206,26.995 -0.137,38.248 -8.523,3.06 -35.554,-7.515 -34.726,-21.946 1.206,-21.319 16.064,-25.39 34.863,-16.302 z"/></g></g></svg>