<svg xmlns="http://www.w3.org/2000/svg" xmlns:svg="http://www.w3.org/2000/svg" xmlns:xlink="http://www.w3.org/1999/xlink" id="svg17226" width="128" height="128" version="1.1" viewBox="0 0 128 128"><defs id="defs17220"><linearGradient id="_Linear1" x1="0" x2="1" y1="0" y2="0" gradientTransform="matrix(137.32,719.201,-719.201,137.32,-12.7656,-459.807)" gradientUnits="userSpaceOnUse"><stop id="stop9052" offset="0%" stop-color="#fff" stop-opacity="1"/><stop id="stop9054" offset="34%" stop-color="#fff" stop-opacity="1"/><stop id="stop9056" offset="51%" stop-color="#bebdf3" stop-opacity="1"/><stop id="stop9058" offset="75%" stop-color="#867fb7" stop-opacity="1"/><stop id="stop9060" offset="87%" stop-color="#9f99c7" stop-opacity="1"/><stop id="stop9062" offset="100%" stop-color="#524c76" stop-opacity="1"/></linearGradient><linearGradient id="_Linear2" x1="0" x2="1" y1="0" y2="0" gradientTransform="matrix(-41.4782,-185.977,185.977,-41.4782,156.163,202.263)" gradientUnits="userSpaceOnUse"><stop id="stop9065" offset="0%" stop-color="#fff" stop-opacity="1"/><stop id="stop9067" offset="34%" stop-color="#fff" stop-opacity="1"/><stop id="stop9069" offset="51%" stop-color="#bebbdb" stop-opacity="1"/><stop id="stop9071" offset="75%" stop-color="#928bbe" stop-opacity="1"/><stop id="stop9073" offset="87%" stop-color="#9f99c7" stop-opacity="1"/><stop id="stop9075" offset="100%" stop-color="#524c76" stop-opacity="1"/></linearGradient><radialGradient id="_Radial3" cx="0" cy="0" r="1" gradientTransform="matrix(36.9132,0,0,28.2927,107.505,89.2005)" gradientUnits="userSpaceOnUse"><stop id="stop9078" offset="0%" stop-color="#fff" stop-opacity="1"/><stop id="stop9080" offset="34%" stop-color="#fff" stop-opacity="1"/><stop id="stop9082" offset="51%" stop-color="#bebbdb" stop-opacity="1"/><stop id="stop9084" offset="75%" stop-color="#928bbe" stop-opacity="1"/><stop id="stop9086" offset="87%" stop-color="#9f99c7" stop-opacity="1"/><stop id="stop9088" offset="100%" stop-color="#524c76" stop-opacity="1"/></radialGradient><radialGradient id="_Radial4" cx="0" cy="0" r="1" gradientTransform="matrix(-5.06038,321.086,-273.845,-4.31164,23.522,98.2549)" gradientUnits="userSpaceOnUse"><stop id="stop9091" offset="0%" stop-color="#fff" stop-opacity="1"/><stop id="stop9093" offset="34%" stop-color="#fff" stop-opacity="1"/><stop id="stop9095" offset="51%" stop-color="#bebbdb" stop-opacity="1"/><stop id="stop9097" offset="75%" stop-color="#928bbe" stop-opacity="1"/><stop id="stop9099" offset="87%" stop-color="#9f99c7" stop-opacity="1"/><stop id="stop9101" offset="100%" stop-color="#524c76" stop-opacity="1"/></radialGradient><filter id="filter3573" color-interpolation-filters="sRGB"><feGaussianBlur id="feGaussianBlur3575" stdDeviation="1.628"/></filter><linearGradient id="linearGradient3538" x1="61.429" x2="116.429" y1="362.143" y2="408.571" gradientTransform="matrix(2.684162,0,0,2.684162,-89.865856,-904.32339)" gradientUnits="userSpaceOnUse" xlink:href="#linearGradient3312"/><linearGradient id="linearGradient3312"><stop id="stop3314" offset="0" stop-color="#c7f994" stop-opacity="1"/><stop id="stop3316" offset="1" stop-color="#87cf3e" stop-opacity="1"/></linearGradient><linearGradient id="linearGradient4136" x1="70.492" x2="113.642" y1="416.389" y2="375.88" gradientTransform="translate(0,80)" gradientUnits="userSpaceOnUse" spreadMethod="pad" xlink:href="#linearGradient3431"/><linearGradient id="linearGradient3431"><stop id="stop3433" offset="0" stop-color="#3d3d3d" stop-opacity="1"/><stop id="stop3435" offset="1" stop-color="#000" stop-opacity=".114"/></linearGradient><filter id="filter3291" color-interpolation-filters="sRGB"><feGaussianBlur id="feGaussianBlur3293" stdDeviation=".401"/></filter><filter id="filter3546" color-interpolation-filters="sRGB"><feGaussianBlur id="feGaussianBlur3548" stdDeviation=".16"/></filter></defs><metadata id="metadata17223"/><g id="layer1" transform="translate(0,-994.5197)"><g id="g978" stroke-width="3.201" transform="matrix(0.31965321,0,0,0.30536901,7.19284,1013.5322)"><path id="path964" fill="#000" fill-opacity="1" fill-rule="evenodd" stroke="none" stroke-width="3.201" d="m 331.79042,510.93347 c -21.29012,0 -39.7658,-16.13992 -39.7658,-37.41096 l -0.0191,-21.99227 v -6.58604 h -13.49776 v -36.6513 l 56.92036,0.26806 17.80557,0.0383 c 21.30926,0 39.76579,16.12071 39.76579,37.41086 v 64.92334 h -61.20904 v 0 0 z" display="inline" enable-background="accumulate" filter="url(#filter3573)" opacity=".26" overflow="visible" transform="matrix(2.5652816,0,0,2.5652816,-688.07167,-1031.7156)" visibility="visible" style="marker:none"/><path id="path966" fill="url(#linearGradient3538)" fill-opacity="1" fill-rule="evenodd" stroke-width="7.873" d="m 299.93164,235.71623 c 0,-36.20721 0,-121.61981 0,-121.61981 0,-40.631742 -35.63252,-73.568789 -79.59741,-73.568789 h -45.6313 v -0.09814 L 51.287618,39.890227 v 44.375066 c 0,0 10.076999,0 18.945012,0 13.224047,0 15.56021,9.128789 15.56021,21.764087 l 0.09814,78.45009 c 0,40.63176 35.63267,73.56876 79.54849,73.56876 h 108.42806 c 13.90056,0 26.06418,-8.8031 26.06418,-22.3321 z" display="inline"/><path id="path968" fill="url(#linearGradient4136)" fill-opacity="1" fill-rule="nonzero" stroke-width="3.201" d="m 142.9375,500.53125 c -10.75182,-7.40935 -18.36682,-15.92034 -24.78125,-27.1875 -12.64444,-23.35809 -9.68791,-34.95326 -41,-37.6875 -9.036289,0 -15.051217,-2 -24.5625,-2 v 3.3125 c 10e-7,10e-6 3.758681,1.90749 7.0625,1.90749 4.926697,1e-5 5.78125,3.41765 5.78125,8.125 l 0.03125,29.15501 c -3e-6,15.13758 13.295158,27.40625 29.65625,27.40625 H 135.5 c 2.96358,0 5.62572,-1.16787 7.4375,-3.03125 z" display="inline" filter="url(#filter3291)" opacity=".175" transform="matrix(2.5789823,0,0,2.5789823,-79.463121,-1044.8703)"/><path id="path970" fill="#000" fill-opacity=".08" fill-rule="evenodd" stroke="none" stroke-width="15.257" d="m 105.51844,438.54009 c -3.83671,0 -7.245744,1.42445 -9.984837,4.1914 -2.737725,2.76548 -4.1752,6.21796 -4.17519,10.11421 v 19.69466 h 8.932957 V 452.8457 c 0,-1.49338 0.48728,-2.66108 1.55355,-3.73818 1.06977,-1.08055 2.2026,-1.56971 3.67352,-1.56971 1.50175,0 2.61758,0.4867 3.68969,1.56971 1.06628,1.0771 1.55356,2.2448 1.55356,3.73818 v 19.69466 h 8.93297 V 452.8457 c 0,-1.49338 0.48728,-2.66108 1.55356,-3.73818 1.07211,-1.08301 2.18794,-1.56971 3.68971,-1.56971 1.47093,0 2.60373,0.48916 3.6735,1.56971 1.06627,1.0771 1.55356,2.2448 1.55356,3.73818 l 0.0486,23.01222 c 0,4.90894 -4.67486,9.04618 -10.68071,9.04618 l -28.805549,-0.11326 c -4.634707,0 -8.593128,-4.51117 -8.593128,-10.30852 v -43.33528 h -8.447462 v 45.00209 c 0,4.77471 1.747181,8.96178 5.146164,12.3476 2.905193,2.8676 6.399074,4.56445 10.324689,4.98427 v 0.16191 h 32.074486 c 4.92872,0 9.25884,-1.83265 12.75212,-5.38904 h 0.0162 c 2.97102,-3.05245 4.70787,-6.70998 5.12997,-10.82624 l -0.0324,-24.58193 c 0,-3.89625 -1.43744,-7.34873 -4.17521,-10.11421 -2.73906,-2.76695 -6.14812,-4.1914 -9.98482,-4.1914 -3.76604,0 -7.06133,1.40042 -9.72593,3.96479 -2.65681,-2.56014 -5.92908,-3.96479 -9.69356,-3.96479 z" display="inline" enable-background="accumulate" filter="url(#filter3546)" overflow="visible" transform="matrix(2.5789823,0,0,2.5789823,-79.463121,-1044.8703)" visibility="visible" style="marker:none"/><path d="m 190.82729,86.721587 c -9.89481,0 -18.68665,3.673619 -25.75072,10.809544 -7.06056,7.132109 -10.76778,16.036009 -10.76776,26.084359 v 50.79219 h 23.03796 v -50.79219 c 0,-3.85138 1.25668,-6.86288 4.00656,-9.6407 2.75894,-2.78671 5.68048,-4.04826 9.47396,-4.04826 3.87298,0 6.75069,1.25521 9.51565,4.04826 2.74991,2.77782 4.00661,5.78932 4.00661,9.6407 v 50.79219 h 23.03793 v -50.79219 c 0,-3.85138 1.25671,-6.86288 4.00664,-9.6407 2.76494,-2.79305 5.64265,-4.04826 9.5157,-4.04826 3.7935,0 6.71497,1.26155 9.47386,4.04826 2.7499,2.77782 4.00661,5.78932 4.00661,9.6407 l 0.1252,59.34812 c 0,12.66007 -12.05639,23.32992 -27.54537,23.32992 l -74.28898,-0.29208 c -11.95283,0 -22.16152,-11.63423 -22.16152,-26.5855 V 67.655042 H 108.73376 V 183.71463 c 0,12.31389 4.50596,23.11226 13.27187,31.84426 7.49243,7.39547 16.5031,12.18937 26.62716,13.27208 l 82.71956,-2e-4 c 12.71108,0 23.87836,-4.72636 32.88749,-13.89822 h 0.0418 c 7.66218,-7.87223 12.14152,-17.30492 13.2301,-27.92069 l -0.0834,-63.39637 c 0,-10.04835 -3.7071,-18.95225 -10.76775,-26.084359 -7.06401,-7.135925 -15.85592,-10.809544 -25.75068,-10.809544 -9.71255,0 -18.21104,3.611659 -25.08302,10.225122 -6.85188,-6.602566 -15.29097,-10.225122 -24.99951,-10.225122 z" style="marker:none" id="path972" fill="#fff" fill-opacity="1" fill-rule="evenodd" stroke="none" stroke-width="7.873" display="inline" enable-background="accumulate" overflow="visible" visibility="visible"/><path id="path974" fill="#52a800" fill-opacity="1" fill-rule="evenodd" stroke="none" stroke-width="7.873" d="m 177.27943,206.07866 v 22.75211 h 54.11314 c 12.71103,0 23.81234,-4.74075 32.82144,-13.91261 h 0.077 c 7.6622,-7.87226 12.13224,-17.28632 13.22083,-27.90209 v -12.91336 h -22.98272 v 8.8395 c 0,12.66014 -12.02881,23.29018 -27.51779,23.29018 l -49.7318,-0.15373 z" display="inline" enable-background="accumulate" opacity=".3" overflow="visible" visibility="visible" style="marker:none"/><path d="m 164.71846,274.89014 c -52.36706,0 -97.811452,-39.69918 -97.811452,-92.01931 l -0.04698,-63.52792 V 103.14333 H 33.659769 V 22.426316 l 140.006321,0.659344 43.79618,0.09421 c 52.41412,0 97.81143,39.651923 97.81143,92.01903 V 274.89011 H 164.71853 v 0 0 z m 129.22209,-42.83713 c 0,-34.7884 0,-116.85409 0,-116.85409 0,-39.039554 -34.23623,-70.685955 -76.47835,-70.685955 h -43.84323 v -0.09421 L 55.039774,43.900626 v 37.909628 c 0,0 4.762719,0 13.283228,0 9.018201,0 19.869854,8.474782 19.869854,20.911236 l 0.09421,80.10261 c 0,39.03958 34.236404,70.68593 76.431374,70.68593 h 104.17924 c 13.35583,0 25.04285,-8.45815 25.04285,-21.45702 z" style="marker:none" id="path976" fill="#fff" fill-opacity="1" fill-rule="evenodd" stroke="none" stroke-width="7.873" display="inline" enable-background="accumulate" overflow="visible" visibility="visible"/></g></g></svg>