<svg xmlns="http://www.w3.org/2000/svg" xmlns:svg="http://www.w3.org/2000/svg" id="svg17226" width="128" height="128" version="1.1" viewBox="0 0 128 128"><metadata id="metadata17223"/><g id="layer1" transform="translate(0,-994.5197)"><g id="g926" stroke-width=".855" transform="matrix(0.43188293,0,0,0.43188293,235.59957,669.66231)"><g id="g910" stroke-width=".855" transform="translate(-547.42891,781.57684)"><path id="path893" fill="#e00" stroke-width=".855" d="m 230.2,110.6 c 0.1,-1.6 -0.1,-3.1 -0.4,-4.5 L 220.2,64.6 C 218,55.4 216,51.3 200.1,43.2 187.6,36.9 160.5,26.4 152.5,26.4 c -7.5,0 -9.6,9.5 -18.6,9.5 -9,0 -14.9,-7 -23.1,-7 -8.1,0 -12.7,5.2 -16.5,15.9 0,0 -10.8,30.4 -12.2,34.9 -0.2,0.8 -0.3,1.6 -0.3,2.5 0,11.8 45.8,50.7 109,50.7 16,0 39.4,-3.2 39.4,-22.3 z m 2.4,7.5 a 72,72 0 0 1 2.2,13 c 0,18 -20.2,28 -46.8,28 -60,0 -112.4,-35.1 -112.4,-58.4 0,-3.3 0.7,-6.5 2,-9.6 C 56.2,92.5 28,96.5 28,121 c 0,40.4 95.6,90.2 171.5,90.2 58,0 72.7,-26.3 72.7,-47.1 0,-16.3 -14,-34.8 -39.5,-45.9" class="hat"/><path id="path895" fill="#000" stroke-width=".855" d="m 232.7,118.2 c 1.2,4.3 1.9,8.6 2.2,13 0,18 -20.2,28 -46.8,28 -60,0 -112.5,-35.1 -112.5,-58.4 0,-3.3 0.6,-6.5 2,-9.6 l 4.6,-11.4 -0.3,2.4 c 0,11.9 46.6,50.7 109,50.7 15.9,0 39.3,-4.1 39.3,-22.3 0,-1.6 -0.1,-3.1 -0.4,-4.5 z" class="band"/></g></g></g></svg>