<svg xmlns="http://www.w3.org/2000/svg" xmlns:svg="http://www.w3.org/2000/svg" xmlns:xlink="http://www.w3.org/1999/xlink" id="svg17226" width="128" height="128" version="1.1" viewBox="0 0 128 128"><defs id="defs17220"><linearGradient id="_Linear1" x1="0" x2="1" y1="0" y2="0" gradientTransform="matrix(137.32,719.201,-719.201,137.32,-12.7656,-459.807)" gradientUnits="userSpaceOnUse"><stop id="stop9052" offset="0%" stop-color="#fff" stop-opacity="1"/><stop id="stop9054" offset="34%" stop-color="#fff" stop-opacity="1"/><stop id="stop9056" offset="51%" stop-color="#bebdf3" stop-opacity="1"/><stop id="stop9058" offset="75%" stop-color="#867fb7" stop-opacity="1"/><stop id="stop9060" offset="87%" stop-color="#9f99c7" stop-opacity="1"/><stop id="stop9062" offset="100%" stop-color="#524c76" stop-opacity="1"/></linearGradient><linearGradient id="_Linear2" x1="0" x2="1" y1="0" y2="0" gradientTransform="matrix(-41.4782,-185.977,185.977,-41.4782,156.163,202.263)" gradientUnits="userSpaceOnUse"><stop id="stop9065" offset="0%" stop-color="#fff" stop-opacity="1"/><stop id="stop9067" offset="34%" stop-color="#fff" stop-opacity="1"/><stop id="stop9069" offset="51%" stop-color="#bebbdb" stop-opacity="1"/><stop id="stop9071" offset="75%" stop-color="#928bbe" stop-opacity="1"/><stop id="stop9073" offset="87%" stop-color="#9f99c7" stop-opacity="1"/><stop id="stop9075" offset="100%" stop-color="#524c76" stop-opacity="1"/></linearGradient><radialGradient id="_Radial3" cx="0" cy="0" r="1" gradientTransform="matrix(36.9132,0,0,28.2927,107.505,89.2005)" gradientUnits="userSpaceOnUse"><stop id="stop9078" offset="0%" stop-color="#fff" stop-opacity="1"/><stop id="stop9080" offset="34%" stop-color="#fff" stop-opacity="1"/><stop id="stop9082" offset="51%" stop-color="#bebbdb" stop-opacity="1"/><stop id="stop9084" offset="75%" stop-color="#928bbe" stop-opacity="1"/><stop id="stop9086" offset="87%" stop-color="#9f99c7" stop-opacity="1"/><stop id="stop9088" offset="100%" stop-color="#524c76" stop-opacity="1"/></radialGradient><radialGradient id="_Radial4" cx="0" cy="0" r="1" gradientTransform="matrix(-5.06038,321.086,-273.845,-4.31164,23.522,98.2549)" gradientUnits="userSpaceOnUse"><stop id="stop9091" offset="0%" stop-color="#fff" stop-opacity="1"/><stop id="stop9093" offset="34%" stop-color="#fff" stop-opacity="1"/><stop id="stop9095" offset="51%" stop-color="#bebbdb" stop-opacity="1"/><stop id="stop9097" offset="75%" stop-color="#928bbe" stop-opacity="1"/><stop id="stop9099" offset="87%" stop-color="#9f99c7" stop-opacity="1"/><stop id="stop9101" offset="100%" stop-color="#524c76" stop-opacity="1"/></radialGradient><filter id="filter3573" color-interpolation-filters="sRGB"><feGaussianBlur id="feGaussianBlur3575" stdDeviation="1.628"/></filter><linearGradient id="linearGradient3538" x1="61.429" x2="116.429" y1="362.143" y2="408.571" gradientTransform="matrix(2.684162,0,0,2.684162,-89.865856,-904.32339)" gradientUnits="userSpaceOnUse" xlink:href="#linearGradient3312"/><linearGradient id="linearGradient3312"><stop id="stop3314" offset="0" stop-color="#c7f994" stop-opacity="1"/><stop id="stop3316" offset="1" stop-color="#87cf3e" stop-opacity="1"/></linearGradient><linearGradient id="linearGradient4136" x1="70.492" x2="113.642" y1="416.389" y2="375.88" gradientTransform="translate(0,80)" gradientUnits="userSpaceOnUse" spreadMethod="pad" xlink:href="#linearGradient3431"/><linearGradient id="linearGradient3431"><stop id="stop3433" offset="0" stop-color="#3d3d3d" stop-opacity="1"/><stop id="stop3435" offset="1" stop-color="#000" stop-opacity=".114"/></linearGradient><filter id="filter3291" color-interpolation-filters="sRGB"><feGaussianBlur id="feGaussianBlur3293" stdDeviation=".401"/></filter><filter id="filter3546" color-interpolation-filters="sRGB"><feGaussianBlur id="feGaussianBlur3548" stdDeviation=".16"/></filter></defs><metadata id="metadata17223"/><g id="layer1" transform="translate(0,-994.5197)"><g id="g841" stroke-width="5.167" transform="matrix(0.72803782,0,0,0.72803782,648.45836,1602.0252)"><circle id="circle823" cx="-804.786" cy="-744.566" r="64" fill="#4c5263" fill-opacity="1" stroke="none" stroke-dasharray="none" stroke-miterlimit="4" stroke-opacity="1" stroke-width="15.502"/><path display="inline" style="line-height:normal;text-indent:0;text-align:start;text-decoration-line:none;text-decoration-style:solid;text-decoration-color:#000;text-transform:none;white-space:normal;isolation:auto;mix-blend-mode:normal;solid-color:#000;solid-opacity:1" id="path825" fill="#4c5263" fill-opacity="1" fill-rule="evenodd" stroke="none" stroke-dasharray="none" stroke-dashoffset="0" stroke-linecap="butt" stroke-linejoin="miter" stroke-miterlimit="4" stroke-opacity="1" stroke-width="22.313" d="m -827.7857,-812.56593 c -9.63078,31.4588 -23.86733,61.39685 -40.00001,90 l -1,2 1.54157,0.79445 c 1.35333,0.62831 3.13495,1.05082 5.54687,1.5332 2.41193,0.48238 5.37886,0.96316 8.71289,1.43945 6.66808,0.95258 14.7982,1.88366 22.68555,2.70313 15.77471,1.63893 30.58203,2.83398 30.58203,2.83398 l 2.51953,0.20313 -0.19335,-2.52149 c 0,0 -3.90695,-50.82991 -4.63672,-59.18164 l -0.0391,-0.45117 -0.21875,-0.39844 c -4.62375,-7.38388 -22.58402,-38.08494 -25.50051,-38.9546 z m 1.99999,9 c 6.82802,12.01186 12.72677,18.82237 20,32 0.72571,8.39811 3.58298,51.7588 3.89118,55.76515 -2.15756,-0.17632 -13.54785,-1.09258 -27.95899,-2.58984 -7.85641,-0.81626 -15.94849,-1.74293 -22.51953,-2.68165 -3.28551,-0.46935 -6.19216,-0.94351 -8.47656,-1.40039 -1.12711,-0.22542 -1.15187,-0.88079 -1.9361,-1.09327 11.78263,-20.81853 30.49883,-53.46772 37,-80 z" baseline-shift="baseline" clip-rule="nonzero" color="#000" color-interpolation="sRGB" color-interpolation-filters="linearRGB" color-rendering="auto" direction="ltr" enable-background="accumulate" font-family="sans-serif" font-size="medium" font-stretch="normal" font-style="normal" font-variant="normal" font-weight="normal" image-rendering="auto" letter-spacing="normal" opacity="1" overflow="visible" shape-rendering="auto" text-anchor="start" text-decoration="none" text-rendering="auto" visibility="visible" word-spacing="normal" writing-mode="lr-tb"/><path display="inline" style="line-height:normal;text-indent:0;text-align:start;text-decoration-line:none;text-decoration-style:solid;text-decoration-color:#000;text-transform:none;white-space:normal;isolation:auto;mix-blend-mode:normal;solid-color:#000;solid-opacity:1" id="path827" fill="#fff" fill-opacity="1" fill-rule="evenodd" stroke="none" stroke-dasharray="none" stroke-dashoffset="0" stroke-linecap="butt" stroke-linejoin="miter" stroke-miterlimit="4" stroke-opacity="1" stroke-width="22.313" d="m -742.14317,-731.41513 c -9.34571,12.60787 -26.60918,19.34605 -47.17544,22.33421 -21.45726,3.11762 -46.33823,2.1913 -68.53889,0.29492 1.06332,1.58839 2.23042,3.12835 3.43158,4.61524 21.3716,1.69438 44.91786,2.38689 65.7284,-0.63672 17.35633,-2.52178 33.03962,-7.63814 43.79912,-17.14649 1.17402,-3.05709 2.13941,-6.44331 2.75523,-9.46116 z" baseline-shift="baseline" clip-rule="nonzero" color="#000" color-interpolation="sRGB" color-interpolation-filters="linearRGB" color-rendering="auto" direction="ltr" enable-background="accumulate" font-family="sans-serif" font-size="medium" font-stretch="normal" font-style="normal" font-variant="normal" font-weight="normal" image-rendering="auto" letter-spacing="normal" opacity="1" overflow="visible" shape-rendering="auto" text-anchor="start" text-decoration="none" text-rendering="auto" visibility="visible" word-spacing="normal" writing-mode="lr-tb"/><path display="inline" style="line-height:normal;text-indent:0;text-align:start;text-decoration-line:none;text-decoration-style:solid;text-decoration-color:#000;text-transform:none;white-space:normal;isolation:auto;mix-blend-mode:normal;solid-color:#000;solid-opacity:1" id="path829" fill="#4c5263" fill-opacity="1" fill-rule="evenodd" stroke="none" stroke-dasharray="none" stroke-dashoffset="0" stroke-linecap="butt" stroke-linejoin="miter" stroke-miterlimit="4" stroke-opacity="1" stroke-width="22.313" d="m -793.78571,-765.56593 -1.02874,4.49952 c 10.04859,6.72143 19.62481,12.58987 25.84375,18.83008 6.21893,6.24022 9.13316,12.3812 6.76953,20.98047 l -1.10156,4.01367 3.91601,-1.41015 c 12.23548,-4.4024 18.0492,-12.93321 21.60101,-19.91359 l 1,-2 -2,-2 c -5.96313,-6.27973 -15.17389,-10.44201 -25.86077,-14.23095 -10.68689,-3.78893 -22.32622,-7.12618 -29.13923,-8.76905 z m 11.9361,7.9507 c 4.9734,1.36682 10.39142,2.98537 15.75977,4.88867 9.74062,3.45345 18.96263,7.89396 24.17382,12.69336 -2.97972,5.49491 -7.52402,11.83259 -15.36328,15.77148 0.8405,-8.22187 -2.78232,-15.15097 -8.63281,-21.02148 -4.31849,-4.33327 -9.95794,-8.32505 -15.9375,-12.33203 z" baseline-shift="baseline" clip-rule="nonzero" color="#000" color-interpolation="sRGB" color-interpolation-filters="linearRGB" color-rendering="auto" direction="ltr" enable-background="accumulate" font-family="sans-serif" font-size="medium" font-stretch="normal" font-style="normal" font-variant="normal" font-weight="normal" image-rendering="auto" letter-spacing="normal" opacity="1" overflow="visible" shape-rendering="auto" text-anchor="start" text-decoration="none" text-rendering="auto" visibility="visible" word-spacing="normal" writing-mode="lr-tb"/><circle id="circle831" cx="-804.711" cy="-744.641" r="64.075" fill="#500000" fill-opacity="0" stroke="none" stroke-dasharray="none" stroke-miterlimit="4" stroke-opacity="1" stroke-width="15.502"/><path id="path833" fill="#5294e2" fill-opacity="1" stroke="none" stroke-dasharray="none" stroke-miterlimit="4" stroke-opacity="1" stroke-width="15.502" d="m -788.70147,-704.80948 c -21.74774,3.06876 -43.90018,2.30793 -65.72445,0.63872 14.04431,17.91048 38.45322,26.93623 60.99997,22.586 21.76014,-3.74023 40.83336,-19.67568 48.51661,-40.35033 -12.92189,9.16602 -28.18857,14.72923 -43.79213,17.12561 z"/><path id="path835" fill="#fff" fill-opacity="1" fill-rule="evenodd" stroke="none" stroke-linecap="butt" stroke-linejoin="miter" stroke-opacity="1" stroke-width="5.167" d="m -800.78571,-769.56593 c 9.63852,19.85542 9.64724,39.49909 4,54 7.95178,0.0481 20.92769,0.93977 35,-6 -11.56629,-26.40963 -39.00001,-48 -39,-48 z"/><path id="path837" fill="#fff" fill-opacity="1" fill-rule="evenodd" stroke="none" stroke-dasharray="none" stroke-linecap="butt" stroke-linejoin="miter" stroke-miterlimit="4" stroke-opacity="1" stroke-width="22.313" d="m -825.78571,-803.56593 c -6.50145,26.53211 -25.21755,59.18176 -37,80 l 10.41462,2.49562 c 6.57103,0.93871 14.66311,1.86538 22.51953,2.68164 14.41013,1.49715 25.90684,2.6463 28.06585,2.82274 -0.3084,-4.00889 -3.27414,-47.59986 -4,-56 -7.27323,-13.17763 -13.17198,-19.98814 -20,-32 z"/><path id="path839" fill="#fff" fill-opacity="1" fill-rule="evenodd" stroke="none" stroke-dasharray="none" stroke-linecap="butt" stroke-linejoin="miter" stroke-miterlimit="4" stroke-opacity="1" stroke-width="22.313" d="m -781.78571,-757.56593 c 5.9813,4.00802 11.68042,7.66564 16,12 5.85007,5.8701 8.8398,13.77887 8,22 7.83834,-3.93845 13.02025,-10.50552 16,-16 -5.21142,-4.79902 -14.26004,-9.54678 -24,-13 -5.37059,-1.90409 -11.02494,-3.63283 -16,-5 z"/></g></g></svg>