<svg xmlns="http://www.w3.org/2000/svg" xmlns:svg="http://www.w3.org/2000/svg" id="svg17226" width="128" height="128" version="1.1" viewBox="0 0 128 128"><metadata id="metadata17223"/><g id="layer1" transform="translate(0,-994.5197)"><g id="g3592" stroke-width="5.377" transform="matrix(0.27898146,0,0,0.27898146,-168.49413,912.51655)"><path id="path3549" fill="#dd4814" stroke-width="5.377" d="m 1000.446,524.81966 c 0,93.926 -76.146,170.074 -170.078,170.074 -93.934,0 -170.079,-76.148 -170.079,-170.074 0,-93.932 76.146,-170.078 170.079,-170.078 93.933,0 170.078,76.146 170.078,170.078 z"/><path id="path3551" fill="#fff" stroke-width="5.377" d="m 714.72,502.10766 c -12.547,0 -22.712,10.166 -22.712,22.712 0,12.54 10.165,22.705 22.712,22.705 12.54,0 22.705,-10.165 22.705,-22.705 0,-12.546 -10.165,-22.712 -22.705,-22.712 z m 162.128,103.204 c -10.861,6.273 -14.585,20.153 -8.311,31.008 6.266,10.861 20.146,14.584 31.007,8.311 10.86,-6.266 14.584,-20.146 8.311,-31.008 -6.266,-10.854 -20.154,-14.577 -31.007,-8.311 z m -112.805,-80.492 c 0,-22.44 11.146,-42.265 28.201,-54.27 l -16.601,-27.805 c -19.867,13.28 -34.649,33.573 -40.792,57.34 7.168,5.849 11.756,14.753 11.756,24.734 0,9.975 -4.588,18.879 -11.756,24.728 6.135,23.774 20.917,44.068 40.792,57.348 l 16.601,-27.812 c -17.055,-11.998 -28.201,-31.822 -28.201,-54.263 z m 66.325,-66.332 c 34.65,0 63.078,26.567 66.062,60.448 l 32.356,-0.477 c -1.592,-25.013 -12.519,-47.468 -29.309,-63.98 -8.634,3.262 -18.607,2.763 -27.227,-2.206 -8.635,-4.983 -14.049,-13.389 -15.529,-22.514 -8.392,-2.316 -17.224,-3.584 -26.355,-3.584 -15.697,0 -30.538,3.687 -43.715,10.209 l 15.778,28.274 c 8.488,-3.95 17.957,-6.17 27.939,-6.17 z m 0,132.657 c -9.982,0 -19.451,-2.221 -27.938,-6.17 l -15.778,28.273 c 13.177,6.53 28.018,10.218 43.716,10.218 9.131,0 17.963,-1.269 26.354,-3.592 1.48,-9.125 6.896,-17.523 15.529,-22.515 8.626,-4.977 18.593,-5.467 27.227,-2.205 16.79,-16.512 27.717,-38.967 29.309,-63.98 l -32.364,-0.477 c -2.977,33.89 -31.404,60.448 -66.055,60.448 z m 46.472,-146.831 c 10.861,6.272 24.742,2.557 31.008,-8.304 6.273,-10.861 2.558,-24.742 -8.304,-31.016 -10.861,-6.266 -24.741,-2.543 -31.016,8.318 -6.265,10.855 -2.542,24.736 8.312,31.002 z"/></g></g></svg>