<svg xmlns="http://www.w3.org/2000/svg" xmlns:svg="http://www.w3.org/2000/svg" id="svg8" width="100%" version="1.1" viewBox="0 0 400 400"><metadata id="metadata5"/><g id="layer1" transform="translate(0,-722.51965)"><rect id="rect826" width="49.515" height="50.271" x="133.461" y="984.057" fill="#fff" fill-opacity="1" stroke="#4a90d9" stroke-dasharray="none" stroke-dashoffset="0" stroke-linecap="square" stroke-linejoin="miter" stroke-miterlimit="4" stroke-opacity="1" stroke-width="3" opacity="1" paint-order="normal" vector-effect="none" style="marker:none"/><rect id="rect828" width="21.149" height="80.931" x="618.781" y="747.799" fill="#fff" fill-opacity="1" stroke="#4a90d9" stroke-dasharray="none" stroke-dashoffset="0" stroke-linecap="square" stroke-linejoin="miter" stroke-miterlimit="4" stroke-opacity="1" stroke-width="3" opacity="1" paint-order="normal" transform="matrix(0.84866032,0.52893824,-0.53575837,0.84437134,0,0)" vector-effect="none" style="marker:none"/><circle id="path839" cx="143.571" cy="868.234" r="40.357" fill="#fff" fill-opacity="1" stroke="#4a90d9" stroke-dasharray="none" stroke-dashoffset="0" stroke-linecap="square" stroke-linejoin="miter" stroke-miterlimit="4" stroke-opacity="1" stroke-width="3" opacity="1" paint-order="normal" vector-effect="none" style="marker:none"/><g id="text857" fill="#4a90d9" fill-opacity="1" stroke="none" stroke-width="1" aria-label="?" font-family="Source Sans Pro" font-size="63.672" font-stretch="normal" font-style="normal" font-variant="normal" font-weight="normal" letter-spacing="0" text-anchor="start" word-spacing="0" writing-mode="lr-tb" style="line-height:1.25;-inkscape-font-specification:'Source Sans Pro, Normal';font-variant-ligatures:normal;font-variant-caps:normal;font-variant-numeric:normal;font-feature-settings:normal;text-align:start"><path font-style="normal" style="-inkscape-font-specification:'Source Sans Pro, Normal';font-variant-ligatures:normal;font-variant-caps:normal;font-variant-numeric:normal;font-feature-settings:normal;text-align:start" id="path859" stroke-width="1" d="m 142.51359,875.69989 h 4.58438 c -1.01875,-8.91408 9.23244,-12.2887 9.23244,-20.62973 0,-6.30353 -4.3297,-10.18752 -10.88791,-10.18752 -4.52071,0 -8.02267,2.22852 -10.6969,5.28478 l 2.99259,2.73789 c 1.97383,-2.29219 4.52071,-3.69297 7.32228,-3.69297 4.075,0 6.17618,2.80157 6.17618,6.17618 0,6.74923 -10.12385,10.37854 -8.72306,20.31137 z m -1.33712,9.42346 c 0,2.29219 1.65548,3.94766 3.75665,3.94766 2.10118,0 3.82032,-1.65547 3.82032,-3.94766 0,-2.41954 -1.71914,-4.07501 -3.82032,-4.07501 -2.10117,0 -3.75665,1.65547 -3.75665,4.07501 z" font-family="Source Sans Pro" font-size="63.672" font-stretch="normal" font-variant="normal" font-weight="normal" text-anchor="start" writing-mode="lr-tb"/></g><circle id="circle862" cx="213.143" cy="871.091" r="8.929" fill="#fff" fill-opacity="1" stroke="#4a90d9" stroke-dasharray="none" stroke-dashoffset="0" stroke-linecap="square" stroke-linejoin="miter" stroke-miterlimit="4" stroke-opacity="1" stroke-width="3" opacity="1" paint-order="normal" vector-effect="none" style="marker:none"/><circle id="circle864" cx="248.643" cy="880.948" r="4.643" fill="#fff" fill-opacity="1" stroke="#4a90d9" stroke-dasharray="none" stroke-dashoffset="0" stroke-linecap="square" stroke-linejoin="miter" stroke-miterlimit="4" stroke-opacity="1" stroke-width="3" opacity="1" paint-order="normal" vector-effect="none" style="marker:none"/><path id="path970" fill="#fff" fill-opacity="1" stroke="none" stroke-linecap="butt" stroke-linejoin="miter" stroke-opacity="1" stroke-width="1" d="m 261.12443,904.07416 c 0,0 18.18275,-20.45559 31.31473,-18.43528 13.13199,2.0203 16.41498,17.67767 16.41498,23.73858 0,6.06092 0.75762,18.94036 0.75762,18.94036 0,0 26.01142,19.1929 26.26396,26.51651 0.25254,7.3236 -4.04061,19.69797 -9.34391,24.24366 -5.3033,4.54568 -6.31345,6.06091 -6.31345,6.06091 l -0.75762,47.7297 -60.35661,2.0203 c 0,0 11.86929,-13.3845 11.86929,-14.8997 0,-1.5153 -1.51523,-13.6371 -1.51523,-13.6371 l -6.81853,3.7881 2.27285,-19.44546 c 0,0 -18.94036,-4.29315 -18.68783,-21.46574 0.25254,-17.17259 27.52666,-37.88072 27.52666,-37.88072 v -28.03173 z"/><path id="path866" fill="none" fill-opacity="1" stroke="#4a90d9" stroke-dasharray="none" stroke-dashoffset="0" stroke-linecap="square" stroke-linejoin="miter" stroke-miterlimit="4" stroke-opacity="1" stroke-width="3" d="m 300.625,993.23394 c 0,0 35.31118,-5.3262 35.31118,-32.78581 0,-19.51751 -26.65047,-32.21419 -26.65047,-32.21419 -0.125,-16.5 2.85715,-42.1693 -19.80403,-42.1693 -19.28617,0 -26.98168,17.52644 -26.98168,17.52644 h 11.42857 v 27.5 c 0,0 -28.21428,23.92857 -27.5,39.64286 0.71429,15.71428 23.92857,22.67857 23.92857,22.67857" opacity="1" paint-order="normal" vector-effect="none" style="marker:none"/><circle id="circle882" cx="285.357" cy="898.234" r="1.98" fill="#fff" fill-opacity="1" stroke="#4a90d9" stroke-dasharray="none" stroke-dashoffset="0" stroke-linecap="square" stroke-linejoin="miter" stroke-miterlimit="4" stroke-opacity="1" stroke-width="3" opacity="1" paint-order="normal" vector-effect="none" style="marker:none"/><path id="path884" fill="#fff" fill-opacity="1" stroke="#4a90d9" stroke-dasharray="none" stroke-dashoffset="0" stroke-linecap="square" stroke-linejoin="miter" stroke-miterlimit="4" stroke-opacity="1" stroke-width="3" d="m 275,917.96608 4.64286,-4.73214 5.17857,5.17857 4.46428,-4.46429 7.05827,4.07509" opacity="1" paint-order="normal" vector-effect="none" style="marker:none"/><path id="path891" fill="#fff" fill-opacity="1" stroke="#4a90d9" stroke-dasharray="none" stroke-dashoffset="0" stroke-linecap="square" stroke-linejoin="miter" stroke-miterlimit="4" stroke-opacity="1" stroke-width="3" d="m 263.57143,967.69822 12.14286,4.46429" opacity="1" paint-order="normal" vector-effect="none" style="marker:none"/><path id="path898" fill="#fff" fill-opacity="1" stroke="#4a90d9" stroke-dasharray="none" stroke-dashoffset="0" stroke-linecap="square" stroke-linejoin="miter" stroke-miterlimit="4" stroke-opacity="1" stroke-width="3" d="m 263.39286,978.94822 9.30792,4.1994" opacity="1" paint-order="normal" vector-effect="none" style="marker:none"/><path id="path905" fill="none" fill-opacity="1" stroke="#4a90d9" stroke-dasharray="none" stroke-dashoffset="0" stroke-linecap="square" stroke-linejoin="miter" stroke-miterlimit="4" stroke-opacity="1" stroke-width="3" d="m 268.57143,968.94822 v -6.42857 l 14.19769,-3.80426 11.83121,6.83076 8.81207,-5.08766 v 7.77545" opacity="1" paint-order="normal" vector-effect="none" style="font-variant-east_asian:normal;marker:none"/><path id="path921" fill="none" fill-opacity="1" stroke="#4a90d9" stroke-dasharray="none" stroke-dashoffset="0" stroke-linecap="square" stroke-linejoin="miter" stroke-miterlimit="4" stroke-opacity="1" stroke-width="3" d="m 297.5,971.09108 18.30357,-6.69643" opacity="1" paint-order="normal" vector-effect="none" style="marker:none"/><path id="path928" fill="none" fill-opacity="1" stroke="#4a90d9" stroke-dasharray="none" stroke-dashoffset="0" stroke-linecap="square" stroke-linejoin="miter" stroke-miterlimit="4" stroke-opacity="1" stroke-width="3" d="m 295.71429,983.59108 8.92857,-3.92857" opacity="1" paint-order="normal" vector-effect="none" style="font-variant-east_asian:normal;marker:none"/><path id="path935" fill="none" fill-opacity="1" stroke="#4a90d9" stroke-dasharray="none" stroke-dashoffset="0" stroke-linecap="square" stroke-linejoin="miter" stroke-miterlimit="4" stroke-opacity="1" stroke-width="3" d="m 265.35714,992.16251 -2.5,17.14289 16.07143,-5 11.78572,6.0714 12.85714,-6.4286 v -10.71426" opacity="1" paint-order="normal" vector-effect="none" style="font-variant-east_asian:normal;marker:none"/><path id="path942" fill="none" fill-opacity="1" stroke="#4a90d9" stroke-dasharray="none" stroke-dashoffset="0" stroke-linecap="square" stroke-linejoin="miter" stroke-miterlimit="4" stroke-opacity="1" stroke-width="3" d="m 282.58928,959.84108 -4.73214,44.10712" opacity="1" paint-order="normal" vector-effect="none" style="marker:none"/><path id="path949" fill="none" fill-opacity="1" stroke="#4a90d9" stroke-dasharray="none" stroke-dashoffset="0" stroke-linecap="square" stroke-linejoin="miter" stroke-miterlimit="4" stroke-opacity="1" stroke-width="3" d="m 293.57143,966.5375 -2.14286,42.7679 v 0 0" opacity="1" paint-order="normal" vector-effect="none" style="marker:none"/><path id="path956" fill="none" fill-opacity="1" stroke="#4a90d9" stroke-dasharray="none" stroke-dashoffset="0" stroke-linecap="square" stroke-linejoin="miter" stroke-miterlimit="4" stroke-opacity="1" stroke-width="3" d="m 269.64286,1007.5196 c 0.35714,2.1429 1.42857,12.1429 1.42857,12.1429 l -12.14286,15 60.35714,-1.0027 1.39032,-47.04851" opacity="1" paint-order="normal" vector-effect="none" style="marker:none"/><path id="path963" fill="none" fill-opacity="1" stroke="#4a90d9" stroke-dasharray="none" stroke-dashoffset="0" stroke-linecap="square" stroke-linejoin="miter" stroke-miterlimit="4" stroke-opacity="1" stroke-width="3" d="m 296.07143,1031.8054 -0.0613,-14.1991" opacity="1" paint-order="normal" vector-effect="none" style="marker:none"/></g></svg>